<svg id="Group_1" data-name="Group 1" xmlns="http://www.w3.org/2000/svg" viewBox="0 0 28.35 32">
  <defs>
    <style>
      .cls-1 {
        fill: #ffd85f;
      }

      .cls-2 {
        fill: #3bb4e7;
      }

      .cls-3 {
        fill: #ed5c68;
      }

      .cls-4 {
        fill: #308bc5;
      }

      .cls-5 {
        fill: #d5465f;
      }
    </style>
  </defs>
  <path id="Path_1" data-name="Path 1" class="cls-1" d="M9.7,22.3A8.526,8.526,0,0,1,7,16,8.833,8.833,0,0,1,9.6,9.7a3.536,3.536,0,0,0-5-5A16.293,16.293,0,0,0,0,16,15.951,15.951,0,0,0,4.7,27.3a3.5,3.5,0,0,0,5,0A3.693,3.693,0,0,0,9.7,22.3Z"/>
  <path id="Path_2" data-name="Path 2" class="cls-2" d="M9.7,9.7A8.526,8.526,0,0,1,16,7a8.833,8.833,0,0,1,6.3,2.6,3.536,3.536,0,0,0,5-5A16.293,16.293,0,0,0,16,0,15.951,15.951,0,0,0,4.7,4.7a3.5,3.5,0,0,0,0,5A3.693,3.693,0,0,0,9.7,9.7Z"/>
  <path id="Path_3" data-name="Path 3" class="cls-3" d="M22.3,22.3A8.526,8.526,0,0,1,16,25a8.833,8.833,0,0,1-6.3-2.6,3.536,3.536,0,0,0-5,5A16.293,16.293,0,0,0,16,32a15.951,15.951,0,0,0,11.3-4.7,3.5,3.5,0,0,0,0-5A3.693,3.693,0,0,0,22.3,22.3Z"/>
  <circle id="Ellipse_1" data-name="Ellipse 1" class="cls-4" cx="3.5" cy="3.5" r="3.5" transform="translate(3.7 3.7)"/>
  <circle id="Ellipse_2" data-name="Ellipse 2" class="cls-5" cx="3.5" cy="3.5" r="3.5" transform="translate(3.7 21.3)"/>
</svg>
