<svg xmlns="http://www.w3.org/2000/svg" viewBox="0 0 178.2 178.2">
  <defs>
    <style>
      .cls-1 {
        fill: #4264fb;
      }
    </style>
  </defs>
  <path id="download" class="cls-1" d="M89.1,1.8a89.1,89.1,0,1,0,89.1,89.1A89.111,89.111,0,0,0,89.1,1.8Zm9.2,34.6A46.19,46.19,0,0,1,130,50.1c17.7,17.7,18.3,45.7,1.4,62.7-30.5,30.5-84.8,20.7-84.8,20.7S36.8,79.2,67.3,48.7a42.762,42.762,0,0,1,31-12.3Zm1,17.6L90.6,72,72.7,80.7l17.9,8.7,8.7,18,8.8-18L126,80.7,108.1,72Z" transform="translate(0 -1.8)"/>
</svg>
