<svg xmlns="http://www.w3.org/2000/svg" viewBox="0 0 298 664">
  <defs>
    <linearGradient id="a" x1="50.016%" x2="50.016%" y1=".0077%" y2="45.8339%">
      <stop offset="0%" stop-color="#13AA52" stop-opacity="0"/>
      <stop offset="100%" stop-color="#116149" stop-opacity=".2"/>
    </linearGradient>
  </defs>
  <g fill="none" fill-rule="nonzero">
    <path fill="#13AA52" d="M292.5 264C257.6 109.9 175 59.2 166.1 39.8c-9.8-13.7-19.6-37.9-19.6-37.9-.2-.4-.4-1.1-.7-1.8-1 13.6-1.5 18.9-14.4 32.7-20 15.6-122.7 101.8-131 277-7.8 163.3 118 260.7 135.1 273.1l1.9 1.4c4.9-11.2 9.8-43.1 13.2-86.8.8 35.3 5.8 73.1 23.3 81.1l1-.7c2.8-1.9 10.9-7.8 21.7-17.8 42.7-39.4 123.2-136.7 95.9-296.1z"/>
    <path fill="#ABABAB" d="M150.7 497.3c-3.4 43.7-8.4 75.5-13.2 86.7 0 0 5.4 38.5 9.1 79.3h13.3c4.9-45.7 14.1-84.9 14.1-84.9-17.5-8-22.6-45.8-23.3-81.1z"/>
    <path fill="#13AA52" d="M292.5 264C257.6 109.9 175 59.2 166.1 39.8c-9.8-13.7-19.6-37.9-19.6-37.9 8.3 32.3 6.9 290.1 7.8 321 2 64.6 0 126.6-3.8 174.5.8 35.3 5.8 73.1 23.3 81.1l1-.7c2.8-1.9 10.9-7.8 21.7-17.8l.8-.7c42-38.6 122.5-135.9 95.2-295.3z"/>
    <path fill="url(#a)" d="M292.5 264C257.6 109.9 175 59.2 166.1 39.8c-9.8-13.7-19.6-37.9-19.6-37.9 8.3 32.3 6.9 290.1 7.8 321 2 64.6 0 126.6-3.8 174.5.8 35.3 5.8 73.1 23.3 81.1l1-.7c2.8-1.9 10.9-7.8 21.7-17.8l.8-.7c42-38.6 122.5-135.9 95.2-295.3z"/>
  </g>
</svg>