<svg xmlns="http://www.w3.org/2000/svg" viewBox="0 0 200 220">
  <g fill="none" fill-rule="nonzero">
    <path fill="#388E3C" d="M94.6182 1.3932L5.4 51.1652C2.0545 53.0166 0 56.4631 0 60.1845v99.5987c0 3.7215 2.0545 7.1496 5.4 9.0195l89.2364 49.8085c3.3272 1.8516 7.4545 1.8516 10.7818 0l89.2182-49.8085c3.309-1.8699 5.3636-5.298 5.3636-9.0195V60.1846c0-3.7215-2.0545-7.1496-5.4-9.0195L105.4 1.3932C103.7273.4583 101.8545 0 100 0c-1.8727 0-3.7273.4583-5.4 1.3932"/>
    <path fill="#2E7D32" d="M94.6182 1.3932L0 159.7833c0 3.7215 2.0545 7.1496 5.4 9.0195l89.2364 49.8085c3.3272 1.8516 7.4545 1.8516 10.7818 0L200 60.1846c0-3.7215-2.0545-7.1496-5.4-9.0195L105.4 1.3932C103.7273.4583 101.8545 0 100 0c-1.8727 0-3.7273.4583-5.4 1.3932"/>
    <path fill="#4CAF50" d="M94.6182 1.3932L5.4 51.1652C2.0545 53.0166 0 56.4631 0 60.1845l94.6182 158.4267c3.3273 1.8516 7.4545 1.8516 10.7818 0l89.2182-49.8085c3.3273-1.8699 5.3818-5.298 5.3818-9.0195l-94.6-158.39C103.7273.4582 101.8545 0 100 0c-1.8727 0-3.7273.4583-5.4 1.3932"/>
  </g>
</svg>