<svg xmlns="http://www.w3.org/2000/svg" viewBox="0 0 112 113">
  <defs>
    <linearGradient id="a" x1="-3.2134%" x2="71.3021%" y1="3.8413%" y2="67.9532%">
      <stop offset="0%" stop-color="#5A9FD4"/>
      <stop offset="100%" stop-color="#306998"/>
    </linearGradient>
    <linearGradient id="b" x1="65.1015%" x2="38.5463%" y1="71.7229%" y2="34.3596%">
      <stop offset="0%" stop-color="#FFD43B"/>
      <stop offset="100%" stop-color="#FFE873"/>
    </linearGradient>
  </defs>
  <g fill="none" fill-rule="nonzero">
    <path fill="url(#a)" d="M55.51.398c-4.584.021-8.961.412-12.812 1.094-11.346 2.005-13.406 6.2-13.406 13.938v10.219h26.812v3.406H19.229c-7.792 0-14.616 4.684-16.75 13.594-2.462 10.213-2.571 16.586 0 27.25 1.906 7.938 6.458 13.594 14.25 13.594h9.219v-12.25c0-8.85 7.657-16.656 16.75-16.656h26.781c7.455 0 13.406-6.138 13.406-13.625V15.429c0-7.266-6.13-12.725-13.406-13.938C64.872.725 60.094.376 55.51.398zm-14.5 8.218c2.77 0 5.031 2.299 5.031 5.125 0 2.816-2.262 5.094-5.031 5.094-2.779 0-5.031-2.277-5.031-5.094 0-2.826 2.252-5.125 5.031-5.125z"/>
    <path fill="url(#b)" d="M86.229 29.054V40.96c0 9.231-7.826 17-16.75 17H42.698c-7.336 0-13.406 6.278-13.406 13.625v25.531c0 7.267 6.318 11.541 13.406 13.625 8.487 2.496 16.626 2.947 26.781 0 6.75-1.954 13.406-5.888 13.406-13.625V86.898H56.104v-3.406h40.187c7.793 0 10.696-5.436 13.406-13.594 2.8-8.398 2.681-16.476 0-27.25-1.926-7.757-5.604-13.594-13.406-13.594H86.229zM71.166 93.71c2.779 0 5.031 2.277 5.031 5.094 0 2.826-2.252 5.125-5.031 5.125-2.77 0-5.031-2.299-5.031-5.125 0-2.816 2.262-5.094 5.031-5.094z"/>
  </g>
</svg>