<svg xmlns="http://www.w3.org/2000/svg" viewBox="0 0 256 256">
  <g fill="none" fill-rule="nonzero">
    <path fill="#007ACC" d="M0 128v128h256V0H0z"/>
    <path fill="#FFF" d="M56.6111 128.8491L56.53 139.333h33.3206v94.6794h23.5683v-94.6794h33.3206v-10.2806c0-5.6889-.1219-10.4432-.2844-10.565-.122-.1626-20.3988-.2439-44.9829-.2033l-44.739.122-.122 10.4431zM206.5666 118.1083c6.5016 1.6254 11.459 4.5105 16.0102 9.2242 2.3568 2.5193 5.8514 7.111 6.1359 8.2082.0812.3251-11.0527 7.802-17.7981 11.9873-.2438.1626-1.219-.894-2.3162-2.5193-3.2915-4.795-6.7454-6.8673-12.028-7.233-7.7612-.5283-12.7593 3.5352-12.7187 10.3212 0 1.9911.2845 3.1695 1.0972 4.795 1.7066 3.5352 4.8761 5.6482 14.8317 9.9555 18.3263 7.8832 26.1689 13.0844 31.045 20.48 5.4452 8.2489 6.6642 21.4146 2.9664 31.2076-4.0635 10.6464-14.141 17.8794-28.3225 20.2768-4.3886.772-14.7911.6502-19.5048-.2031-10.2806-1.8286-20.033-6.908-26.047-13.5721-2.3568-2.6006-6.9485-9.3867-6.664-9.8743.1218-.1625 1.1783-.8127 2.3567-1.5035 1.1378-.6501 5.4451-3.1289 9.5086-5.4857l7.355-4.2667 1.544 2.2756c2.1537 3.2914 6.8674 7.8019 9.7118 9.3054 8.1676 4.3073 19.3829 3.6978 24.9092-1.2597 2.3568-2.1537 3.332-4.3886 3.332-7.68 0-2.9663-.3656-4.2667-1.9098-6.5016-1.991-2.8444-6.0546-5.2419-17.5949-10.24-13.2063-5.6889-18.8952-9.2241-24.0965-14.8317-3.007-3.2508-5.8514-8.4521-7.0298-12.8-.9753-3.6165-1.219-12.6781-.447-16.3353 2.7225-12.7593 12.353-21.6584 26.2501-24.2997 4.5105-.8533 14.9943-.5282 19.4235.569z"/>
  </g>
</svg>